<?xml version="1.0" encoding="UTF-8" standalone="no"?>
<!-- Created with Inkscape (http://www.inkscape.org/) -->

<svg
   width="95.28508mm"
   height="110.0338mm"
   viewBox="0 0 95.285077 110.0338"
   version="1.1"
   id="svg1"
   xml:space="preserve"
   inkscape:version="1.4.3 (0d15f75, 2025-12-25)"
   sodipodi:docname="climber_scan_logo.svg"
   xmlns:inkscape="http://www.inkscape.org/namespaces/inkscape"
   xmlns:sodipodi="http://sodipodi.sourceforge.net/DTD/sodipodi-0.dtd"
   xmlns="http://www.w3.org/2000/svg"
   xmlns:svg="http://www.w3.org/2000/svg"><sodipodi:namedview
     id="namedview1"
     pagecolor="#ffffff"
     bordercolor="#000000"
     borderopacity="0.25"
     inkscape:showpageshadow="2"
     inkscape:pageopacity="0.0"
     inkscape:pagecheckerboard="0"
     inkscape:deskcolor="#d1d1d1"
     inkscape:document-units="mm"
     showgrid="true"
     inkscape:zoom="0.68862935"
     inkscape:cx="-95.84256"
     inkscape:cy="270.82784"
     inkscape:window-width="1920"
     inkscape:window-height="991"
     inkscape:window-x="-9"
     inkscape:window-y="-9"
     inkscape:window-maximized="1"
     inkscape:current-layer="layer1"
     showguides="true"><inkscape:grid
       id="grid28"
       units="mm"
       originx="-44.847383"
       originy="-59.707104"
       spacingx="0.99999998"
       spacingy="1"
       empcolor="#0099e5"
       empopacity="0.30196078"
       color="#0099e5"
       opacity="0.14901961"
       empspacing="5"
       enabled="true"
       visible="true" /><sodipodi:guide
       position="154.75352,333.65407"
       orientation="0,-1"
       id="guide45"
       inkscape:locked="false" /></sodipodi:namedview><defs
     id="defs1" /><g
     inkscape:label="Layer 1"
     inkscape:groupmode="layer"
     id="layer1"
     transform="translate(-44.847384,-59.707102)"><path
       d="m 80.176069,112.97528 c 0,0 0.08576,1.14969 2.563632,1.01313 2.382371,-0.13128 2.344543,-1.25295 2.344543,-1.25295 L 83.083009,98.368363 c -0.04605,-0.330601 -0.377691,-3.588488 -2.880607,-3.445069 -2.356587,0.135044 -2.140368,2.471167 -2.095489,2.80193 z"
       id="path26-8-9-1"
       style="fill:#ccff00;fill-opacity:1;stroke:none;stroke-width:0.153516"
       sodipodi:nodetypes="cscsssc" /><path
       d="m 100.04579,112.08219 c 0,0 -0.08576,2.0493 -2.563636,1.91427 -2.382371,-0.1298 -2.344543,-2.15139 -2.344543,-2.15139 l 2.001235,-14.205873 c 0.04603,-0.326892 0.513532,-2.755268 3.016444,-2.613458 2.35659,0.133528 1.93778,2.523703 1.89173,2.850604 z"
       id="path26-8-9-1-1"
       style="fill:#ccff00;fill-opacity:1;stroke:none;stroke-width:0.152652"
       sodipodi:nodetypes="cscsssc" /><path
       d="m 86.18381,99.82394 c 0,0 -2.076551,0.0499 -2.064869,-2.438402 0.01123,-2.39237 2.071089,-2.486312 2.071089,-2.486312 l 7.984028,0.09429 c 0.183726,0.0022 1.901415,-0.02781 1.886579,2.486332 -0.01398,2.367152 -1.709074,2.440552 -1.892793,2.438382 z"
       id="path26-8-9-3-9"
       style="fill:#ccff00;fill-opacity:1;stroke:none;stroke-width:0.114246"
       sodipodi:nodetypes="cscsssc" /><path
       d="m 48.580844,120.93038 c 0,0 -3.747584,0.002 -3.621489,-2.48643 0.12122,-2.39237 3.688631,-2.43828 3.688631,-2.43828 l 86.180444,0.0943 c 1.9831,0.002 5.25881,-0.0278 5.09862,2.48633 -0.15108,2.36715 -3.18266,2.44055 -5.16576,2.43838 z"
       id="path26-8-9-3-9-83"
       style="fill:#e5ff80;stroke:none;stroke-width:0.37535;stroke-opacity:1"
       sodipodi:nodetypes="cscsssc" /><path
       d="m 66.236417,99.810451 c 0,0 -2.277333,0.0499 -2.264521,-2.438405 0.01232,-2.39237 2.271342,-2.486312 2.271342,-2.486312 l 8.756001,0.09429 c 0.20149,0.0022 2.085257,-0.02781 2.068993,2.486332 -0.01535,2.367155 -1.874326,2.440555 -2.075809,2.438385 z"
       id="path26-8-9-3-9-3"
       style="fill:#ccff00;fill-opacity:1;stroke:none;stroke-width:0.119642"
       sodipodi:nodetypes="cscsssc" /><path
       d="m 97.175546,128.22397 c 0,0 -2.27733,0.0499 -2.26452,-2.4384 0.0123,-2.39237 2.27134,-2.48632 2.27134,-2.48632 l 8.756014,0.0943 c 0.20148,0.002 2.08525,-0.0278 2.06899,2.48634 -0.0154,2.36715 -1.87433,2.44055 -2.07581,2.43838 z"
       id="path26-8-9-3-9-3-7"
       style="fill:#ececec;stroke-width:0.119642"
       sodipodi:nodetypes="cscsssc" /><path
       d="m 59.576043,85.312528 c 0,0 -0.0499,-2.383628 2.438406,-2.370218 2.39237,0.01289 2.486312,2.377358 2.486312,2.377358 l -0.09429,9.164691 c -0.0022,0.210895 0.02781,2.182588 -2.486332,2.165565 -2.367156,-0.01607 -2.440556,-1.961811 -2.438386,-2.172698 z"
       id="path26-8-9-3-9-3-2"
       style="fill:#ccff00;fill-opacity:1;stroke:none;stroke-width:0.122402"
       sodipodi:nodetypes="cscsssc" /><path
       d="m 108.95739,128.11839 c 0,0 -0.0499,-2.38363 2.4384,-2.37022 2.39237,0.0129 2.48632,2.37736 2.48632,2.37736 l -0.0943,9.16469 c -0.002,0.2109 0.0278,2.18259 -2.48634,2.16557 -2.36715,-0.0161 -2.44055,-1.96181 -2.43838,-2.1727 z"
       id="path26-8-9-3-9-3-2-3"
       style="fill:#ececec;stroke-width:0.122402"
       sodipodi:nodetypes="cscsssc" /><path
       d="m 109.36338,86.444046 c 0,0 1.56877,-1.79531 3.3988,-0.109234 1.75947,1.621064 0.23616,3.431879 0.23616,3.431879 l -6.24317,6.709936 c -0.14354,0.154521 -1.44968,1.631838 -3.29636,-0.0743 -1.7387,-1.606433 -0.48227,-3.093939 -0.33861,-3.24834 z"
       id="path26-8-9-3-9-3-2-7"
       style="fill:#ccff00;fill-opacity:1;stroke:none;stroke-width:0.122402"
       sodipodi:nodetypes="cscsssc"
       inkscape:transform-center-x="2.8526682"
       inkscape:transform-center-y="0.4754447" /><path
       d="m 80.213609,124.73999 c 0,0 0.886521,-2.21319 3.171295,-1.22746 2.196678,0.94772 1.35819,3.16052 1.35819,3.16052 l -3.67188,8.39748 c -0.08434,0.19331 -0.828216,2.01954 -3.135337,1.02038 -2.17224,-0.94079 -1.478645,-2.76018 -1.394152,-2.95342 z"
       id="path26-8-9-3-9-3-2-7-1"
       style="fill:#ececec;stroke-width:0.122402"
       sodipodi:nodetypes="cscsssc"
       inkscape:transform-center-x="2.5454528"
       inkscape:transform-center-y="1.3599983" /><path
       d="m 119.57442,76.127979 c 0,0 1.56877,-1.79531 3.3988,-0.109234 1.75947,1.621064 0.23616,3.431879 0.23616,3.431879 l -6.24317,6.709936 c -0.14354,0.154521 -1.44968,1.631838 -3.29636,-0.0743 -1.7387,-1.606433 -0.48227,-3.093939 -0.33861,-3.24834 z"
       id="path26-8-9-3-9-3-2-7-6"
       style="fill:#ccff00;fill-opacity:1;stroke:none;stroke-width:0.122402"
       sodipodi:nodetypes="cscsssc"
       inkscape:transform-center-x="2.8526682"
       inkscape:transform-center-y="0.4754447" /><path
       d="m 125.82768,71.945408 c 0,0 0.62493,-0.639465 1.35392,-0.03891 0.70089,0.577401 0.0941,1.222389 0.0941,1.222389 l -2.48699,2.38999 c -0.0572,0.05504 -0.57748,0.581239 -1.31311,-0.02646 -0.69262,-0.57219 -0.19212,-1.10202 -0.13489,-1.157016 z"
       id="path26-8-9-3-9-3-2-7-6-2"
       style="fill:#ccff00;fill-opacity:1;stroke:none;stroke-width:0.0461064"
       sodipodi:nodetypes="cscsssc"
       inkscape:transform-center-x="1.1363577"
       inkscape:transform-center-y="0.16934571" /><path
       d="m 128.09596,74.684262 c 0,0 0.80429,-0.390616 1.2874,0.420986 0.46449,0.780313 -0.32459,1.182257 -0.32459,1.182257 l -3.14842,1.408773 c -0.0724,0.03247 -0.73995,0.351854 -1.22689,-0.468716 -0.45847,-0.772613 0.19165,-1.102101 0.2641,-1.134518 z"
       id="path26-8-9-3-9-3-2-7-6-2-7"
       style="fill:#ccff00;fill-opacity:1;stroke:none;stroke-width:0.0461064"
       sodipodi:nodetypes="cscsssc"
       inkscape:transform-center-x="1.1172398"
       inkscape:transform-center-y="-0.21508743" /><path
       d="m 65.116754,79.081998 c 0,0 0.350224,-0.822682 1.247476,-0.527666 0.862664,0.28364 0.531347,1.104881 0.531347,1.104881 l -1.449953,3.129668 c -0.03329,0.07202 -0.327142,0.751202 -1.23317,0.451938 -0.853066,-0.281785 -0.578999,-0.957141 -0.545633,-1.029158 z"
       id="path26-8-9-3-9-3-2-7-6-2-7-9"
       style="fill:#ccff00;fill-opacity:1;stroke:none;stroke-width:0.0461064"
       sodipodi:nodetypes="cscsssc"
       inkscape:transform-center-x="1.0016103"
       inkscape:transform-center-y="0.55614595" /><path
       d="m 61.162228,78.280142 c 0,0 -0.01584,-0.893987 0.923703,-0.990656 0.903328,-0.09295 0.935848,0.792009 0.935848,0.792009 l -0.04711,3.448909 c -10e-4,0.07934 0.0078,0.819309 -0.941535,0.915678 -0.893809,0.09073 -0.919085,-0.637682 -0.918,-0.717046 z"
       id="path26-8-9-3-9-3-2-7-6-2-7-7"
       style="fill:#ccff00;fill-opacity:1;stroke:none;stroke-width:0.0461064"
       sodipodi:nodetypes="cscsssc"
       inkscape:transform-center-x="0.67202916"
       inkscape:transform-center-y="0.90736048" /><path
       d="m 57.78787,79.240223 c 0,0 -0.225303,-0.865276 0.665282,-1.179842 0.856251,-0.302444 1.095644,0.550139 1.095644,0.550139 l 0.763983,3.363558 c 0.01764,0.07737 0.199911,0.794583 -0.700219,1.111146 -0.847521,0.29805 -1.043115,-0.404065 -1.060695,-0.481462 z"
       id="path26-8-9-3-9-3-2-7-6-2-7-3"
       style="fill:#ccff00;fill-opacity:1;stroke:none;stroke-width:0.0461064"
       sodipodi:nodetypes="cscsssc"
       inkscape:transform-center-x="0.43086492"
       inkscape:transform-center-y="1.0455997" /><path
       d="m 121.50201,70.511617 c 0,0 0.16787,-0.878226 1.10726,-0.780125 0.90319,0.09432 0.7535,0.967131 0.7535,0.967131 l -0.75354,3.36591 c -0.017,0.07753 -0.16046,0.80348 -1.10934,0.703083 -0.89342,-0.09454 -0.76874,-0.812642 -0.7514,-0.890098 z"
       id="path26-8-9-3-9-3-2-7-6-2-7-2"
       style="fill:#ccff00;fill-opacity:1;stroke:none;stroke-width:0.0461064"
       sodipodi:nodetypes="cscsssc"
       inkscape:transform-center-x="0.85456794"
       inkscape:transform-center-y="0.74885267" /><path
       d="m 116.97996,73.347529 c 0,0 -0.37151,-0.713591 0.42966,-1.019897 0.77031,-0.294504 1.15362,0.409813 1.15362,0.409813 l 1.09654,1.822137 c 0.0255,0.04184 0.43116,0.579043 -0.37877,0.887846 -0.7626,0.290751 -1.17928,-0.235842 -1.20452,-0.277773 z"
       id="path26-8-9-3-9-3-2-7-6-2-7-2-8"
       style="fill:#ccff00;fill-opacity:1;stroke:none;stroke-width:0.034347"
       sodipodi:nodetypes="cscsssc"
       inkscape:transform-center-x="0.270205"
       inkscape:transform-center-y="0.66142063" /><path
       d="m 66.095522,86.148257 c 0,0 -0.77633,0.110319 -0.863128,-0.792429 -0.08345,-0.867972 0.687059,-0.993305 0.687059,-0.993305 l 2.02028,-0.427962 c 0.04647,-0.01013 0.883967,-0.149874 0.869019,0.762431 -0.01414,0.862772 -0.646474,1.013443 -0.692963,1.023299 z"
       id="path26-8-9-3-9-3-2-7-6-2-7-2-8-3"
       style="fill:#ccff00;fill-opacity:1;stroke:none;stroke-width:0.0349653"
       sodipodi:nodetypes="cscsssc"
       inkscape:transform-center-x="-0.55696271"
       inkscape:transform-center-y="0.53390541" /><path
       d="m 88.09846,128.15558 c 0,0 -2.046729,0.0329 -2.040755,-2.45538 0.0057,-2.39237 2.043936,-2.46934 2.043936,-2.46934 l 4.082764,0.0943 c 0.09395,0.002 1.872272,-0.0278 1.864684,2.48634 -0.0071,2.36715 -1.773911,2.44055 -1.867859,2.43838 z"
       id="path26-8-9-3-9-8"
       style="fill:#ececec;stroke-width:0.0816972"
       sodipodi:nodetypes="cscsssc" /><path
       d="m 71.3682,158.5264 c 0,0 -0.843283,2.15767 -3.145205,1.2128 -2.212997,-0.9089 -1.414354,-3.07378 -1.414354,-3.07378 l 1.83028,-4.2437 c 0.04193,-0.0977 0.77353,-1.97288 3.098716,-1.01655 2.189263,0.90031 1.50297,2.77989 1.460851,2.87754 z"
       id="path26-8-9-3-9-8-1"
       style="fill:#ececec;stroke-width:0.0869121"
       sodipodi:nodetypes="cscsssc" /><path
       d="m 113.20129,145.2802 c 0,0 -2.31636,0.0329 -2.30961,-2.45538 0.007,-2.39237 2.31321,-2.46934 2.31321,-2.46934 l 4.62061,0.0943 c 0.10627,0.002 2.11892,-0.0278 2.11034,2.48634 -0.008,2.36715 -2.0076,2.44055 -2.11393,2.43838 z"
       id="path26-8-9-3-9-8-1-0"
       style="fill:#ececec;stroke-width:0.0869121"
       sodipodi:nodetypes="cscsssc" /><path
       d="m 60.223105,59.707106 c -2.9405,-1.04e-4 -5.392649,-1.91e-4 -7.339257,0.265934 -2.054643,0.280933 -3.909702,0.898973 -5.400368,2.414875 -1.490682,1.515911 -2.098422,3.402343 -2.374682,5.491765 -0.26169,1.979566 -0.26151,4.473081 -0.26141,7.463423 v 3.501386 c 0,1.378621 1.09896,2.496096 2.454602,2.496096 1.355666,0 2.454596,-1.117475 2.454596,-2.496096 v -3.328292 c 0,-3.208444 0.005,-5.363642 0.21781,-6.971271 0.203051,-1.535881 0.55391,-2.19315 0.980424,-2.626885 0.426513,-0.433736 1.072851,-0.79057 2.583125,-0.997053 1.580903,-0.216138 3.700312,-0.221526 6.855345,-0.221526 h 3.272742 c 1.355601,0 2.454599,-1.117484 2.454599,-2.496104 0,-1.378577 -1.098998,-2.496252 -2.454599,-2.496252 z"
       id="path24-1-2"
       style="fill:#cccccc;stroke-width:0.312455;stroke-dasharray:none" /><path
       d="m 140.13246,75.421136 c 1e-4,-2.9405 1.9e-4,-5.39265 -0.26594,-7.33926 -0.28093,-2.05464 -0.89897,-3.9097 -2.41487,-5.40037 -1.51591,-1.49068 -3.40235,-2.09842 -5.49177,-2.37468 -1.97957,-0.26169 -4.47308,-0.26151 -7.46342,-0.26141 h -3.50139 c -1.37862,0 -2.49609,1.09896 -2.49609,2.4546 0,1.35567 1.11747,2.4546 2.49609,2.4546 h 3.32829 c 3.20845,0 5.36365,0.005 6.97127,0.21781 1.53589,0.20305 2.19316,0.55391 2.62689,0.98042 0.43374,0.42652 0.79057,1.07285 0.99705,2.58313 0.21614,1.5809 0.22153,3.70031 0.22153,6.85534 v 3.27274 c 0,1.35561 1.11748,2.4546 2.4961,2.4546 1.37858,0 2.49626,-1.09899 2.49626,-2.4546 z"
       id="path24-1-1-2"
       style="fill:#cccccc;stroke-width:0.312455;stroke-dasharray:none" /><path
       d="m 45.1495,154.25789 c -1.04e-4,2.9405 -1.91e-4,5.39265 0.265934,7.33926 0.280933,2.05464 0.898973,3.9097 2.414875,5.40037 1.515911,1.49068 3.402343,2.09842 5.491765,2.37468 1.979566,0.26169 4.473081,0.26151 7.463423,0.26141 h 3.501386 c 1.378621,0 2.496096,-1.09896 2.496096,-2.4546 0,-1.35567 -1.117475,-2.4546 -2.496096,-2.4546 h -3.328292 c -3.208444,0 -5.363642,-0.005 -6.971271,-0.21781 -1.535881,-0.20305 -2.19315,-0.55391 -2.626885,-0.98042 -0.433736,-0.42652 -0.79057,-1.07286 -0.997053,-2.58313 -0.216138,-1.5809 -0.221526,-3.70031 -0.221526,-6.85534 v -3.27275 c 0,-1.3556 -1.117484,-2.4546 -2.496104,-2.4546 -1.378577,0 -2.496252,1.099 -2.496252,2.4546 z"
       id="path24-1-19"
       style="fill:#cccccc;stroke-width:0.312455;stroke-dasharray:none" /><path
       d="m 124.30998,169.7409 c 2.9405,1e-4 5.39265,1.9e-4 7.33926,-0.26594 2.05464,-0.28093 3.9097,-0.89897 5.40037,-2.41487 1.49068,-1.51591 2.09842,-3.40235 2.37468,-5.49177 0.26169,-1.97957 0.26151,-4.47308 0.26141,-7.46342 v -3.50139 c 0,-1.37862 -1.09896,-2.49609 -2.4546,-2.49609 -1.35567,0 -2.4546,1.11747 -2.4546,2.49609 v 3.32829 c 0,3.20845 -0.005,5.36365 -0.21781,6.97127 -0.20305,1.53589 -0.55391,2.19316 -0.98042,2.62689 -0.42652,0.43374 -1.07285,0.79057 -2.58313,0.99705 -1.5809,0.21614 -3.70031,0.22153 -6.85534,0.22153 h -3.27274 c -1.35561,0 -2.4546,1.11748 -2.4546,2.4961 0,1.37858 1.09899,2.49626 2.4546,2.49626 z"
       id="path24-1-1-4"
       style="fill:#cccccc;stroke-width:0.312455;stroke-dasharray:none" /><ellipse
       style="fill:#ccff00;fill-opacity:1;stroke:none;stroke-width:3.31781;stroke-dasharray:none;stroke-opacity:1"
       id="path28"
       cx="42.979847"
       cy="116.31081"
       rx="6.3257279"
       ry="7.4647284"
       transform="rotate(-25.985392)" /><path
       d="m 74.385244,138.76685 c 0,0 0.88652,-2.2132 3.171294,-1.22747 2.196678,0.94773 1.35819,3.16052 1.35819,3.16052 l -3.671879,8.39749 c -0.08434,0.1933 -0.828217,2.01953 -3.135337,1.02038 -2.172233,-0.9408 -1.478646,-2.76019 -1.394153,-2.95342 z"
       id="path26-8-9-3-9-3-2-7-4"
       style="fill:#ececec;stroke-width:0.122402"
       sodipodi:nodetypes="cscsssc"
       inkscape:transform-center-x="2.5454536"
       inkscape:transform-center-y="1.3599984" /></g></svg>
